<svg width="34" height="34" viewBox="0 0 34 34" fill="none" xmlns="http://www.w3.org/2000/svg">
<path d="M6.48229 23.5115L6.85155 24.9105C7.31927 26.7294 8.34089 27.6621 10.3718 27.6621H23.6281C25.6714 27.6621 26.6806 26.7527 27.1606 24.9105L27.5299 23.5115H6.48229ZM6.07611 21.9142H27.9484L30.2624 12.9368L29.2531 12.3888L23.5789 16.3062C23.1603 16.5861 22.8773 16.4811 22.6434 16.1663L17.3015 8.51804L16.7107 8.49472L11.3195 16.2013C11.1103 16.5044 10.8641 16.5977 10.4456 16.3179L4.88218 12.4704L3.70056 12.7619L6.07611 21.9142ZM4.15597 15.2685C5.78071 15.2685 7.08541 14.0211 7.08541 12.4704C7.08541 10.9548 5.78071 9.6956 4.15597 9.6956C2.53125 9.6956 1.21423 10.9431 1.21423 12.4704C1.21423 14.0211 2.54355 15.2685 4.15597 15.2685ZM17.0061 10.4185C18.6185 10.4185 19.9355 9.17095 19.9355 7.63195C19.9355 6.11628 18.6185 4.85712 17.0061 4.85712C15.3691 4.85712 14.0644 6.10463 14.0644 7.63195C14.0644 9.17095 15.3814 10.4185 17.0061 10.4185ZM29.8439 15.2685C31.4564 15.2685 32.7857 14.0211 32.7857 12.4704C32.7857 10.9431 31.4687 9.6956 29.8439 9.6956C28.2315 9.6956 26.9145 10.9548 26.9145 12.4704C26.9145 14.0211 28.2315 15.2685 29.8439 15.2685Z" fill="#262626"/>
</svg>
